<svg width="16" height="16" viewBox="0 0 16 16" fill="none" xmlns="http://www.w3.org/2000/svg">
<mask id="mask0_125_142" style="mask-type:luminance" maskUnits="userSpaceOnUse" x="0" y="0" width="16" height="16">
<path d="M16 0H0V16H16V0Z" fill="white"/>
</mask>
<g mask="url(#mask0_125_142)">
<path d="M14.1714 0H1.82857C0.818679 0 0 0.818679 0 1.82857V14.1714C0 15.1813 0.818679 16 1.82857 16H14.1714C15.1813 16 16 15.1813 16 14.1714V1.82857C16 0.818679 15.1813 0 14.1714 0Z" fill="#2F4EED"/>
<path d="M6.62855 3.02855C6.62855 2.93386 6.7053 2.85712 6.79999 2.85712H7.71428C7.80894 2.85712 7.88569 2.93386 7.88569 3.02855V4.00426C8.17344 3.96213 8.47751 3.94105 8.79794 3.94105C8.83654 3.94105 8.87531 3.94142 8.91428 3.94211V3.02855C8.91428 2.93386 8.99102 2.85712 9.08569 2.85712H9.99999C10.0947 2.85712 10.1714 2.93386 10.1714 3.02855V4.07642C10.5935 4.15212 11.0062 4.26896 11.4096 4.42698C11.499 4.46201 11.5394 4.56483 11.5004 4.65251L10.8986 6.00604C10.8607 6.09107 10.7621 6.13024 10.6755 6.09619C10.3995 5.98761 10.1206 5.89424 9.83876 5.81603C9.50407 5.7232 9.14896 5.67676 8.77346 5.67676C8.48774 5.67676 8.23262 5.73033 8.00814 5.83747C7.78366 5.94105 7.59182 6.09283 7.43262 6.29283C7.27346 6.49283 7.15101 6.73747 7.0653 7.02677C6.98366 7.31248 6.94283 7.63747 6.94283 8.00176C6.94283 8.49461 7.01426 8.9089 7.15712 9.24462C7.29999 9.58033 7.51632 9.83392 7.8061 10.0053C8.09999 10.1768 8.46731 10.2625 8.90814 10.2625C9.30815 10.2625 9.69181 10.2143 10.0591 10.1178C10.3545 10.0412 10.6512 9.95205 10.9491 9.85054C11.0616 9.81221 11.1796 9.89504 11.1796 10.0139V11.4416C11.1796 11.5123 11.1362 11.576 11.0697 11.6003C10.7759 11.708 10.4764 11.7921 10.1714 11.853V12.8572C10.1714 12.9518 10.0947 13.0286 9.99999 13.0286H9.08569C8.99102 13.0286 8.91428 12.9518 8.91428 12.8572V11.989C8.82548 11.9915 8.73568 11.9929 8.64489 11.9929C8.37863 11.9929 8.12557 11.9802 7.88569 11.9551V12.8572C7.88569 12.9518 7.80894 13.0286 7.71428 13.0286H6.79999C6.7053 13.0286 6.62855 12.9518 6.62855 12.8572V11.6619C6.49846 11.6104 6.37463 11.5529 6.25712 11.4892C5.6408 11.15 5.18571 10.6803 4.89183 10.0803C4.60203 9.48032 4.45712 8.78391 4.45712 7.99105C4.45712 7.39818 4.55101 6.85534 4.73876 6.36249C4.9306 5.86961 5.21019 5.44282 5.57755 5.08213C5.87257 4.78953 6.22292 4.55109 6.62855 4.36679V3.02855Z" fill="white"/>
</g>
</svg>
