<svg width="160" height="36" viewBox="0 0 160 36" fill="none" xmlns="http://www.w3.org/2000/svg">
<g id="Frame 1000004629">
<g id="Mask group">
<mask id="mask0_776_1719" style="mask-type:luminance" maskUnits="userSpaceOnUse" x="0" y="0" width="35" height="36">
<g id="Group">
<path id="Vector" d="M34.6154 0.692383H0V35.3078H34.6154V0.692383Z" fill="white"/>
</g>
</mask>
<g mask="url(#mask0_776_1719)">
<g id="Group_2">
<path id="Vector_2" d="M30.6593 0.692383H3.95604C1.77118 0.692383 0 2.46356 0 4.64842V31.3517C0 33.5365 1.77118 35.3078 3.95604 35.3078H30.6593C32.8441 35.3078 34.6154 33.5365 34.6154 31.3517V4.64842C34.6154 2.46356 32.8441 0.692383 30.6593 0.692383Z" fill="#2F4EED"/>
<path id="Vector_3" d="M14.3404 7.24466C14.3404 7.03982 14.5064 6.87378 14.7113 6.87378H16.6893C16.8941 6.87378 17.0602 7.03982 17.0602 7.24466V9.35559C17.6827 9.26443 18.3405 9.21882 19.0338 9.21882C19.1173 9.21882 19.2012 9.21963 19.2855 9.22113V7.24466C19.2855 7.03982 19.4515 6.87378 19.6563 6.87378H21.6343C21.8392 6.87378 22.0052 7.03982 22.0052 7.24466V9.5117C22.9185 9.67547 23.8113 9.92824 24.6839 10.2701C24.8773 10.3459 24.9648 10.5684 24.8805 10.758L23.5784 13.6864C23.4966 13.8703 23.2832 13.955 23.0958 13.8814C22.4987 13.6465 21.8952 13.4445 21.2855 13.2753C20.5615 13.0744 19.7932 12.974 18.9808 12.974C18.3627 12.974 17.8107 13.0899 17.3251 13.3217C16.8394 13.5457 16.4244 13.8741 16.08 14.3068C15.7356 14.7395 15.4707 15.2688 15.2853 15.8947C15.1087 16.5128 15.0203 17.2159 15.0203 18.004C15.0203 19.0703 15.1748 19.9666 15.4839 20.6929C15.793 21.4192 16.261 21.9678 16.888 22.3387C17.5238 22.7095 18.3185 22.895 19.2722 22.895C20.1376 22.895 20.9676 22.7907 21.7623 22.582C22.4014 22.4162 23.0432 22.2234 23.6878 22.0038C23.9311 21.9209 24.1864 22.1 24.1864 22.3571V25.4459C24.1864 25.599 24.0925 25.7367 23.9487 25.7894C23.3129 26.0223 22.6651 26.2042 22.0052 26.3361V28.5085C22.0052 28.7132 21.8392 28.8793 21.6343 28.8793H19.6563C19.4515 28.8793 19.2855 28.7132 19.2855 28.5085V26.6303C19.0933 26.6357 18.8991 26.6387 18.7027 26.6387C18.1266 26.6387 17.5791 26.6112 17.0602 26.5569V28.5085C17.0602 28.7132 16.8941 28.8793 16.6893 28.8793H14.7113C14.5064 28.8793 14.3404 28.7132 14.3404 28.5085V25.9226C14.0589 25.8111 13.791 25.6868 13.5368 25.549C12.2034 24.8151 11.2188 23.799 10.583 22.5009C9.95608 21.2028 9.64258 19.6962 9.64258 17.9809C9.64258 16.6982 9.84569 15.5238 10.2519 14.4575C10.6669 13.3912 11.2718 12.4679 12.0666 11.6875C12.7048 11.0545 13.4628 10.5386 14.3404 10.1399V7.24466Z" fill="white"/>
</g>
</g>
</g>
<g id="Clip path group">
<mask id="mask1_776_1719" style="mask-type:luminance" maskUnits="userSpaceOnUse" x="40" y="8" width="120" height="20">
<g id="clip0_18_242">
<path id="Vector_4" d="M159.846 8.06421H40.6152V27.936H159.846V8.06421Z" fill="white"/>
</g>
</mask>
<g mask="url(#mask1_776_1719)">
<g id="Group_3">
<path id="Vector_5" d="M47.3753 27.7609C46.0042 27.7609 44.8357 27.5132 43.8696 27.0177C42.9034 26.514 42.1684 25.7378 41.6649 24.689C41.1611 23.6402 40.9092 22.2983 40.9092 20.6633C40.9092 18.9704 41.1942 17.5913 41.7638 16.5261C42.3419 15.4525 43.1388 14.6639 44.1546 14.1602C45.1784 13.6565 46.3634 13.4046 47.7096 13.4046C48.6676 13.4046 49.4934 13.4996 50.1869 13.6895C50.8888 13.8712 51.4999 14.09 52.0203 14.346L50.9053 17.2693C50.3107 17.0298 49.7576 16.8357 49.2457 16.6871C48.7338 16.5302 48.2215 16.4518 47.7096 16.4518C47.0488 16.4518 46.4999 16.6086 46.0623 16.9225C45.6246 17.228 45.2984 17.6904 45.0838 18.3098C44.8688 18.9291 44.7615 19.7053 44.7615 20.6385C44.7615 21.5551 44.8773 22.3149 45.1084 22.9177C45.3396 23.5205 45.6742 23.9706 46.1119 24.2678C46.5496 24.5569 47.0819 24.7014 47.7096 24.7014C48.4942 24.7014 49.1919 24.5982 49.803 24.3917C50.4142 24.177 51.0088 23.8797 51.5869 23.4998V26.7328C51.0088 27.0962 50.4019 27.3563 49.7657 27.5132C49.1384 27.6783 48.3415 27.7609 47.3753 27.7609ZM66.8849 20.5642C66.8849 21.7203 66.728 22.7443 66.4142 23.6361C66.1088 24.528 65.6588 25.2836 65.0642 25.9029C64.4776 26.514 63.7676 26.9764 62.9334 27.2903C62.1076 27.604 61.1746 27.7609 60.1342 27.7609C59.1596 27.7609 58.2638 27.604 57.4461 27.2903C56.6369 26.9764 55.9307 26.514 55.328 25.9029C54.7334 25.2836 54.2711 24.528 53.9407 23.6361C53.6188 22.7443 53.4576 21.7203 53.4576 20.5642C53.4576 19.0282 53.7299 17.7276 54.2749 16.6623C54.8203 15.5971 55.5965 14.7878 56.6038 14.2345C57.6115 13.6813 58.813 13.4046 60.2084 13.4046C61.5049 13.4046 62.6526 13.6813 63.6519 14.2345C64.6596 14.7878 65.448 15.5971 66.018 16.6623C66.5957 17.7276 66.8849 19.0282 66.8849 20.5642ZM57.3099 20.5642C57.3099 21.4726 57.4092 22.2364 57.6073 22.8558C57.8053 23.4751 58.1149 23.9416 58.5361 24.2554C58.9573 24.5693 59.5065 24.7261 60.1838 24.7261C60.8526 24.7261 61.3934 24.5693 61.8065 24.2554C62.2276 23.9416 62.533 23.4751 62.723 22.8558C62.9211 22.2364 63.0203 21.4726 63.0203 20.5642C63.0203 19.6476 62.9211 18.8878 62.723 18.285C62.533 17.6739 62.2276 17.2156 61.8065 16.9101C61.3853 16.6045 60.8361 16.4518 60.1588 16.4518C59.1596 16.4518 58.433 16.7944 57.9788 17.4798C57.533 18.1653 57.3099 19.1934 57.3099 20.5642ZM73.2769 13.6647V27.5132H69.4992V13.6647H73.2769ZM71.3942 8.23926C71.9557 8.23926 72.4388 8.37141 72.8434 8.63564C73.248 8.89164 73.4503 9.37472 73.4503 10.0849C73.4503 10.7868 73.248 11.274 72.8434 11.5466C72.4388 11.8108 71.9557 11.943 71.3942 11.943C70.8246 11.943 70.3373 11.8108 69.9326 11.5466C69.5361 11.274 69.338 10.7868 69.338 10.0849C69.338 9.37472 69.5361 8.89164 69.9326 8.63564C70.3373 8.37141 70.8246 8.23926 71.3942 8.23926ZM84.6115 13.4046C86.0896 13.4046 87.2788 13.8092 88.1792 14.6185C89.0792 15.4195 89.5292 16.7078 89.5292 18.4832V27.5132H85.7515V19.4246C85.7515 18.4336 85.5696 17.6863 85.2057 17.1826C84.8511 16.6788 84.2892 16.427 83.5215 16.427C82.3653 16.427 81.5769 16.8192 81.1557 17.6037C80.7346 18.3882 80.5238 19.5196 80.5238 20.9977V27.5132H76.7457V13.6647H79.6319L80.1399 15.436H80.3503C80.6476 14.9571 81.0153 14.5689 81.453 14.2716C81.8988 13.9744 82.3899 13.7555 82.9269 13.6151C83.4719 13.4748 84.0334 13.4046 84.6115 13.4046ZM105.496 20.5642C105.496 21.7203 105.34 22.7443 105.026 23.6361C104.72 24.528 104.27 25.2836 103.675 25.9029C103.089 26.514 102.379 26.9764 101.545 27.2903C100.719 27.604 99.7857 27.7609 98.7453 27.7609C97.7707 27.7609 96.8749 27.604 96.0576 27.2903C95.2484 26.9764 94.5423 26.514 93.9392 25.9029C93.3449 25.2836 92.8823 24.528 92.5523 23.6361C92.2299 22.7443 92.0688 21.7203 92.0688 20.5642C92.0688 19.0282 92.3415 17.7276 92.8865 16.6623C93.4315 15.5971 94.2076 14.7878 95.2149 14.2345C96.2226 13.6813 97.4242 13.4046 98.8196 13.4046C100.116 13.4046 101.264 13.6813 102.263 14.2345C103.271 14.7878 104.059 15.5971 104.629 16.6623C105.207 17.7276 105.496 19.0282 105.496 20.5642ZM95.9211 20.5642C95.9211 21.4726 96.0203 22.2364 96.2188 22.8558C96.4165 23.4751 96.7265 23.9416 97.1476 24.2554C97.5688 24.5693 98.118 24.7261 98.7949 24.7261C99.4638 24.7261 100.005 24.5693 100.418 24.2554C100.839 23.9416 101.144 23.4751 101.334 22.8558C101.533 22.2364 101.631 21.4726 101.631 20.5642C101.631 19.6476 101.533 18.8878 101.334 18.285C101.144 17.6739 100.839 17.2156 100.418 16.9101C99.9965 16.6045 99.4473 16.4518 98.7703 16.4518C97.7707 16.4518 97.0446 16.7944 96.5899 17.4798C96.1442 18.1653 95.9211 19.1934 95.9211 20.5642ZM124.375 13.4046C125.943 13.4046 127.128 13.8092 127.93 14.6185C128.739 15.4195 129.143 16.7078 129.143 18.4832V27.5132H125.353V19.4246C125.353 18.4336 125.184 17.6863 124.845 17.1826C124.506 16.6788 123.982 16.427 123.272 16.427C122.273 16.427 121.562 16.7862 121.141 17.5046C120.72 18.2148 120.51 19.2346 120.51 20.5642V27.5132H116.731V19.4246C116.731 18.764 116.657 18.2106 116.509 17.7648C116.36 17.3188 116.133 16.9844 115.828 16.7614C115.522 16.5385 115.13 16.427 114.65 16.427C113.948 16.427 113.395 16.6045 112.991 16.9596C112.594 17.3064 112.309 17.8226 112.136 18.508C111.971 19.1851 111.888 20.015 111.888 20.9977V27.5132H108.11V13.6647H110.996L111.504 15.436H111.715C111.996 14.9571 112.346 14.5689 112.768 14.2716C113.197 13.9744 113.668 13.7555 114.18 13.6151C114.692 13.4748 115.212 13.4046 115.741 13.4046C116.756 13.4046 117.615 13.5698 118.317 13.9C119.027 14.2304 119.572 14.7423 119.952 15.436H120.287C120.7 14.7259 121.281 14.2098 122.033 13.8876C122.793 13.5656 123.573 13.4046 124.375 13.4046ZM138.198 13.3798C140.057 13.3798 141.481 13.7844 142.472 14.5937C143.463 15.403 143.958 16.6334 143.958 18.285V27.5132H141.32L140.589 25.6304H140.49C140.093 26.1259 139.689 26.5305 139.276 26.8443C138.863 27.1581 138.388 27.3893 137.852 27.538C137.315 27.6866 136.662 27.7609 135.895 27.7609C135.077 27.7609 134.342 27.604 133.69 27.2903C133.046 26.9764 132.538 26.4975 132.166 25.8533C131.795 25.201 131.609 24.3752 131.609 23.376C131.609 21.9061 132.125 20.8243 133.157 20.1306C134.19 19.4287 135.738 19.0406 137.802 18.9663L140.205 18.892V18.285C140.205 17.5583 140.015 17.0257 139.635 16.6871C139.255 16.3485 138.727 16.1793 138.05 16.1793C137.381 16.1793 136.725 16.2742 136.08 16.4641C135.436 16.6541 134.792 16.8935 134.148 17.1826L132.897 14.6309C133.632 14.2428 134.454 13.9372 135.362 13.7143C136.278 13.4913 137.224 13.3798 138.198 13.3798ZM140.205 21.0968L138.743 21.1463C137.521 21.1794 136.671 21.3982 136.192 21.8028C135.721 22.2075 135.486 22.7401 135.486 23.4008C135.486 23.9788 135.655 24.3917 135.993 24.6394C136.332 24.8789 136.774 24.9986 137.319 24.9986C138.128 24.9986 138.81 24.7592 139.363 24.2802C139.924 23.8013 140.205 23.12 140.205 22.2364V21.0968ZM151.738 27.7609C150.193 27.7609 148.934 27.1581 147.96 25.9524C146.994 24.7385 146.51 22.9589 146.51 20.6137C146.51 18.2437 147.001 16.4518 147.985 15.2378C148.967 14.0157 150.251 13.4046 151.837 13.4046C152.498 13.4046 153.08 13.4954 153.583 13.6771C154.087 13.8588 154.521 14.1023 154.884 14.4079C155.256 14.7135 155.569 15.0561 155.826 15.436H155.95C155.9 15.1718 155.838 14.7836 155.763 14.2716C155.698 13.7514 155.665 13.2188 155.665 12.6738V8.23926H159.455V27.5132H156.556L155.826 25.7171H155.665C155.425 26.097 155.123 26.4438 154.76 26.7576C154.405 27.0631 153.98 27.3067 153.485 27.4884C152.989 27.6701 152.407 27.7609 151.738 27.7609ZM153.063 24.7509C154.095 24.7509 154.822 24.4454 155.243 23.8343C155.673 23.2149 155.9 22.2859 155.925 21.0473V20.6385C155.925 19.2924 155.718 18.2643 155.305 17.5542C154.893 16.8357 154.124 16.4765 153.001 16.4765C152.167 16.4765 151.515 16.8357 151.044 17.5542C150.573 18.2726 150.338 19.309 150.338 20.6633C150.338 22.0176 150.573 23.0374 151.044 23.7228C151.523 24.4082 152.196 24.7509 153.063 24.7509Z" fill="#151515"/>
</g>
</g>
</g>
</g>
</svg>
