<svg width="56" height="57" viewBox="0 0 56 57" fill="none" xmlns="http://www.w3.org/2000/svg">
<rect y="0.115234" width="56" height="56" rx="8" fill="#2F4EED"/>
<path d="M28.75 19.146V19.7133C28.75 20.0472 28.8983 20.3638 29.1548 20.5776L30.2234 21.4681C30.6651 21.8361 30.7582 22.478 30.4393 22.9564L29.9282 23.7229C29.6507 24.1392 29.2423 24.4511 28.7676 24.6094L28.6254 24.6568C27.9327 24.8877 27.6492 25.714 28.0542 26.3215C28.4237 26.8757 28.2238 27.6283 27.6281 27.9262L25 29.2402L25.4234 30.2987C25.608 30.7602 25.408 31.2862 24.9634 31.5085C24.5503 31.7151 24.0486 31.5966 23.7714 31.2271L23.0922 30.3215C22.5904 29.6524 21.5599 29.7453 21.1859 30.4933L20.5 31.8652L19.888 32.0182M28.75 19.146C28.5027 19.1256 28.2526 19.1152 28 19.1152C23.0294 19.1152 19 23.1447 19 28.1152C19 29.5136 19.3189 30.8376 19.888 32.0182M28.75 19.146C33.3696 19.5272 37 23.3972 37 28.1152C37 29.9944 36.4241 31.7391 35.4391 33.1824M35.4391 33.1824L35.2628 32.6537C34.9566 31.735 34.0968 31.1152 33.1283 31.1152H32.5L32.1756 30.7908C31.9031 30.5183 31.5335 30.3652 31.1481 30.3652C30.5977 30.3652 30.0945 30.6762 29.8484 31.1685L29.8119 31.2415C29.6131 31.639 29.2567 31.9347 28.8295 32.0568L27.8408 32.3393C27.2906 32.4965 26.9461 33.0416 27.0401 33.606L27.1131 34.0437C27.1921 34.5178 27.6022 34.8652 28.0828 34.8652C28.9291 34.8652 29.6805 35.4068 29.9482 36.2097L30.1628 36.8537M35.4391 33.1824C34.2095 34.984 32.3425 36.316 30.1628 36.8537M30.1628 36.8537C29.47 37.0246 28.7456 37.1152 28 37.1152C24.4278 37.1152 21.3418 35.0341 19.888 32.0182M31.7498 25.1152C31.7498 26.0113 31.3569 26.8155 30.7341 27.3652" stroke="white" stroke-width="1.5" stroke-linecap="round" stroke-linejoin="round"/>
</svg>
