<svg width="56" height="57" viewBox="0 0 56 57" fill="none" xmlns="http://www.w3.org/2000/svg">
<rect y="0.115234" width="56" height="56" rx="8" fill="#2F4EED"/>
<path fill-rule="evenodd" clip-rule="evenodd" d="M20.917 26.7651C21.9874 22.7705 26.0933 20.4 30.0879 21.4703C31.4068 21.8237 32.5468 22.5068 33.4452 23.4069L35.3452 25.3069H32.1666C31.7531 25.3069 31.4178 25.6422 31.4178 26.0557C31.4178 26.4693 31.7531 26.8045 32.1666 26.8045H37.1512C37.3498 26.8045 37.5403 26.7256 37.6807 26.5852C37.8212 26.4447 37.9001 26.2542 37.9 26.0556V21.0711C37.9 20.6576 37.5648 20.3223 37.1512 20.3223C36.7377 20.3223 36.4024 20.6576 36.4024 21.0711V24.2462L34.5052 22.3489C33.4257 21.2676 32.0554 20.4471 30.4755 20.0237C25.682 18.7393 20.7549 21.584 19.4705 26.3775C19.3634 26.777 19.6005 27.1876 19.9999 27.2946C20.3994 27.4017 20.81 27.1646 20.917 26.7651ZM36.2998 30.1117C35.9004 30.0047 35.4898 30.2418 35.3828 30.6412C34.3124 34.6358 30.2065 37.0064 26.2119 35.936C24.893 35.5826 23.753 34.8996 22.8546 33.9995L20.9558 32.0994H24.1335C24.547 32.0994 24.8823 31.7641 24.8823 31.3506C24.8823 30.937 24.547 30.6018 24.1335 30.6018L19.1488 30.6018C18.7353 30.6018 18.4 30.937 18.4 31.3506V36.3352C18.4 36.7488 18.7353 37.084 19.1488 37.084C19.5624 37.084 19.8976 36.7488 19.8976 36.3352V33.1592L21.7947 35.0575C22.8741 36.1389 24.2443 36.9593 25.8242 37.3826C30.6178 38.667 35.5449 35.8223 36.8293 31.0288C36.9364 30.6294 36.6993 30.2188 36.2998 30.1117Z" fill="white"/>
</svg>
