<svg width="40" height="41" viewBox="0 0 40 41" fill="none" xmlns="http://www.w3.org/2000/svg">
<g id="Media / Social icon">
<path id="bg" d="M0 20.6152C0 31.6609 8.95431 40.6152 20 40.6152C31.0457 40.6152 40 31.6609 40 20.6152C40 9.56954 31.0457 0.615234 20 0.615234C8.95431 0.615234 0 9.56954 0 20.6152Z" fill="white"/>
<g id="instagram">
<path d="M20 12.1152C22.75 12.1152 23.125 12.1152 24.25 12.1152C25.25 12.1152 25.75 12.3652 26.125 12.4902C26.625 12.7402 27 12.8652 27.375 13.2402C27.75 13.6152 28 13.9902 28.125 14.4902C28.25 14.8652 28.375 15.3652 28.5 16.3652C28.5 17.4902 28.5 17.7402 28.5 20.6152C28.5 23.4902 28.5 23.7402 28.5 24.8652C28.5 25.8652 28.25 26.3652 28.125 26.7402C27.875 27.2402 27.75 27.6152 27.375 27.9902C27 28.3652 26.625 28.6152 26.125 28.7402C25.75 28.8652 25.25 28.9902 24.25 29.1152C23.125 29.1152 22.875 29.1152 20 29.1152C17.125 29.1152 16.875 29.1152 15.75 29.1152C14.75 29.1152 14.25 28.8652 13.875 28.7402C13.375 28.4902 13 28.3652 12.625 27.9902C12.25 27.6152 12 27.2402 11.875 26.7402C11.75 26.3652 11.625 25.8652 11.5 24.8652C11.5 23.7402 11.5 23.4902 11.5 20.6152C11.5 17.7402 11.5 17.4902 11.5 16.3652C11.5 15.3652 11.75 14.8652 11.875 14.4902C12.125 13.9902 12.25 13.6152 12.625 13.2402C13 12.8652 13.375 12.6152 13.875 12.4902C14.25 12.3652 14.75 12.2402 15.75 12.1152C16.875 12.1152 17.25 12.1152 20 12.1152ZM20 10.2402C17.125 10.2402 16.875 10.2402 15.75 10.2402C14.625 10.2402 13.875 10.4902 13.25 10.7402C12.625 10.9902 12 11.3652 11.375 11.9902C10.75 12.6152 10.5 13.1152 10.125 13.8652C9.875 14.4902 9.75 15.2402 9.625 16.3652C9.625 17.4902 9.625 17.8652 9.625 20.6152C9.625 23.4902 9.625 23.7402 9.625 24.8652C9.625 25.9902 9.875 26.7402 10.125 27.3652C10.375 27.9902 10.75 28.6152 11.375 29.2402C12 29.8652 12.5 30.1152 13.25 30.4902C13.875 30.7402 14.625 30.8652 15.75 30.9902C16.875 30.9902 17.25 30.9902 20 30.9902C22.75 30.9902 23.125 30.9902 24.25 30.9902C25.375 30.9902 26.125 30.7402 26.75 30.4902C27.375 30.2402 28 29.8652 28.625 29.2402C29.25 28.6152 29.5 28.1152 29.875 27.3652C30.125 26.7402 30.25 25.9902 30.375 24.8652C30.375 23.7402 30.375 23.3652 30.375 20.6152C30.375 17.8652 30.375 17.4902 30.375 16.3652C30.375 15.2402 30.125 14.4902 29.875 13.8652C29.625 13.2402 29.25 12.6152 28.625 11.9902C28 11.3652 27.5 11.1152 26.75 10.7402C26.125 10.4902 25.375 10.3652 24.25 10.2402C23.125 10.2402 22.875 10.2402 20 10.2402Z" fill="#101010"/>
<path d="M20 15.2402C17 15.2402 14.625 17.6152 14.625 20.6152C14.625 23.6152 17 25.9902 20 25.9902C23 25.9902 25.375 23.6152 25.375 20.6152C25.375 17.6152 23 15.2402 20 15.2402ZM20 24.1152C18.125 24.1152 16.5 22.6152 16.5 20.6152C16.5 18.7402 18 17.1152 20 17.1152C21.875 17.1152 23.5 18.6152 23.5 20.6152C23.5 22.4902 21.875 24.1152 20 24.1152Z" fill="#101010"/>
<path d="M25.5 16.3652C26.1904 16.3652 26.75 15.8056 26.75 15.1152C26.75 14.4249 26.1904 13.8652 25.5 13.8652C24.8096 13.8652 24.25 14.4249 24.25 15.1152C24.25 15.8056 24.8096 16.3652 25.5 16.3652Z" fill="#101010"/>
</g>
</g>
</svg>
