<svg width="90" height="90" viewBox="0 0 90 90" fill="none" xmlns="http://www.w3.org/2000/svg">
<mask id="mask0_21_1231" style="mask-type:luminance" maskUnits="userSpaceOnUse" x="0" y="0" width="90" height="90">
<path d="M90 0H0V90H90V0Z" fill="white"/>
</mask>
<g mask="url(#mask0_21_1231)">
<path d="M79.7142 0H10.2857C4.60507 0 0 4.60507 0 10.2857V79.7142C0 85.3947 4.60507 90 10.2857 90H79.7142C85.3947 90 90 85.3947 90 79.7142V10.2857C90 4.60507 85.3947 0 79.7142 0Z" fill="#2F4EED"/>
<path d="M37.2856 17.0356C37.2856 16.503 37.7173 16.0713 38.2499 16.0713H43.3928C43.9253 16.0713 44.357 16.503 44.357 17.0356V22.524C45.9756 22.287 47.686 22.1684 49.4884 22.1684C49.7055 22.1684 49.9236 22.1705 50.1428 22.1744V17.0356C50.1428 16.503 50.5745 16.0713 51.107 16.0713H56.2499C56.7824 16.0713 57.2142 16.503 57.2142 17.0356V22.9299C59.5887 23.3557 61.9101 24.0129 64.1787 24.9018C64.6816 25.0988 64.9092 25.6772 64.69 26.1704L61.3045 33.784C61.0917 34.2623 60.5369 34.4826 60.0498 34.2911C58.4972 33.6803 56.9281 33.1551 55.343 32.7152C53.4604 32.193 51.4629 31.9318 49.3507 31.9318C47.7435 31.9318 46.3085 32.2331 45.0458 32.8358C43.7831 33.4184 42.704 34.2722 41.8085 35.3972C40.9132 36.5222 40.2244 37.8983 39.7423 39.5256C39.2831 41.1327 39.0534 42.9608 39.0534 45.0099C39.0534 47.7822 39.4552 50.1126 40.2588 52.001C41.0624 53.8894 42.2793 55.3158 43.9093 56.28C45.5624 57.2443 47.6286 57.7265 50.1083 57.7265C52.3583 57.7265 54.5164 57.4553 56.5827 56.9128C58.2442 56.4815 59.9129 55.9803 61.5888 55.4093C62.2215 55.1937 62.8852 55.6596 62.8852 56.328V64.3589C62.8852 64.7569 62.6411 65.1149 62.2673 65.2519C60.6142 65.8574 58.9299 66.3305 57.2142 66.6732V72.3215C57.2142 72.8539 56.7824 73.2857 56.2499 73.2857H51.107C50.5745 73.2857 50.1428 72.8539 50.1428 72.3215V67.4382C49.6433 67.4523 49.1382 67.4601 48.6275 67.4601C47.1298 67.4601 45.7063 67.3887 44.357 67.2473V72.3215C44.357 72.8539 43.9253 73.2857 43.3928 73.2857H38.2499C37.7173 73.2857 37.2856 72.8539 37.2856 72.3215V65.5983C36.5538 65.3084 35.8573 64.9851 35.1963 64.6269C31.7295 62.7187 29.1696 60.0768 27.5165 56.7018C25.8864 53.3268 25.0713 49.4095 25.0713 44.9497C25.0713 41.6148 25.5994 38.5613 26.6555 35.789C27.7346 33.0166 29.3073 30.6159 31.3737 28.587C33.0332 26.9411 35.0039 25.5999 37.2856 24.5632V17.0356Z" fill="white"/>
</g>
</svg>
