<svg width="172" height="172" viewBox="0 0 172 172" fill="none" xmlns="http://www.w3.org/2000/svg">
<mask id="mask0_46_13" style="mask-type:luminance" maskUnits="userSpaceOnUse" x="0" y="0" width="172" height="172">
<path d="M171.995 0H0V171.995H171.995V0Z" fill="white"/>
</mask>
<g mask="url(#mask0_46_13)">
<path d="M152.338 0H19.6566C8.80055 0 0 8.80055 0 19.6566V152.338C0 163.194 8.80055 171.995 19.6566 171.995H152.338C163.194 171.995 171.995 163.194 171.995 152.338V19.6566C171.995 8.80055 163.194 0 152.338 0Z" fill="#2F4EED"/>
<path d="M71.2549 32.5562C71.2549 31.5384 72.0799 30.7134 73.0978 30.7134H82.9261C83.9438 30.7134 84.7688 31.5384 84.7688 32.5562V43.0449C87.862 42.5919 91.1307 42.3653 94.5752 42.3653C94.9901 42.3653 95.4069 42.3693 95.8258 42.3768V32.5562C95.8258 31.5384 96.6508 30.7134 97.6684 30.7134H107.497C108.514 30.7134 109.34 31.5384 109.34 32.5562V43.8206C113.877 44.6343 118.314 45.8902 122.649 47.589C123.61 47.9655 124.045 49.0708 123.626 50.0133L117.156 64.5634C116.75 65.4774 115.689 65.8984 114.759 65.5325C111.792 64.3652 108.793 63.3615 105.764 62.5208C102.166 61.5229 98.3486 61.0237 94.312 61.0237C91.2406 61.0237 88.4982 61.5995 86.0851 62.7513C83.672 63.8647 81.6098 65.4963 79.8984 67.6463C78.1875 69.7962 76.8711 72.426 75.9498 75.5359C75.0723 78.6072 74.6333 82.1008 74.6333 86.0167C74.6333 91.3147 75.4012 95.7683 76.9369 99.3771C78.4726 102.986 80.7982 105.712 83.9132 107.555C87.0724 109.397 91.021 110.319 95.7598 110.319C100.06 110.319 104.184 109.801 108.133 108.764C111.308 107.94 114.497 106.982 117.7 105.891C118.909 105.479 120.177 106.369 120.177 107.646V122.994C120.177 123.754 119.711 124.439 118.996 124.7C115.837 125.857 112.618 126.762 109.34 127.417V138.211C109.34 139.228 108.514 140.053 107.497 140.053H97.6684C96.6508 140.053 95.8258 139.228 95.8258 138.211V128.878C94.8712 128.905 93.9059 128.92 92.9299 128.92C90.0678 128.92 87.3474 128.784 84.7688 128.514V138.211C84.7688 139.228 83.9438 140.053 82.9261 140.053H73.0978C72.0799 140.053 71.2549 139.228 71.2549 138.211V125.362C69.8564 124.808 68.5254 124.19 67.2621 123.506C60.6369 119.859 55.7448 114.81 52.5856 108.361C49.4704 101.911 47.9127 94.4246 47.9127 85.9017C47.9127 79.5285 48.9219 73.6931 50.9402 68.395C53.0024 63.0968 56.0079 58.5089 59.9569 54.6316C63.1283 51.4862 66.8945 48.9231 71.2549 46.9419V32.5562Z" fill="white"/>
</g>
</svg>
