<svg width="24" height="24" viewBox="0 0 24 24" fill="none" xmlns="http://www.w3.org/2000/svg">
<g id="Media / Icon/Filled/exclamation-circle">
<path id="Subtract" fill-rule="evenodd" clip-rule="evenodd" d="M3.60001 12C3.60001 7.36078 7.36081 3.59998 12 3.59998C16.6392 3.59998 20.4 7.36078 20.4 12C20.4 16.6392 16.6392 20.4 12 20.4C7.36081 20.4 3.60001 16.6392 3.60001 12ZM12 8.76921C12.3569 8.76921 12.6462 9.0585 12.6462 9.41536V12.6461C12.6462 13.003 12.3569 13.2923 12 13.2923C11.6431 13.2923 11.3539 13.003 11.3539 12.6461V9.41536C11.3539 9.0585 11.6431 8.76921 12 8.76921ZM12 15.8769C12.3569 15.8769 12.6462 15.5876 12.6462 15.2307C12.6462 14.8739 12.3569 14.5846 12 14.5846C11.6431 14.5846 11.3539 14.8739 11.3539 15.2307C11.3539 15.5876 11.6431 15.8769 12 15.8769Z" fill="white"/>
</g>
</svg>
