<svg width="24" height="24" viewBox="0 0 24 24" fill="none" xmlns="http://www.w3.org/2000/svg">
<g id="Media / Icon/Filled/exclamation">
<path id="Subtract" fill-rule="evenodd" clip-rule="evenodd" d="M9.89282 6.01702C10.829 4.39431 13.171 4.39431 14.1072 6.01702L20.0708 16.354C21.0065 17.9758 19.836 20.0024 17.9637 20.0024H6.03635C4.16399 20.0024 2.99351 17.9758 3.92917 16.354L9.89282 6.01702ZM12.0002 10.2715C12.3361 10.2715 12.6084 10.5438 12.6084 10.8797V13.9206C12.6084 14.2565 12.3361 14.5288 12.0002 14.5288C11.6643 14.5288 11.392 14.2565 11.392 13.9206V10.8797C11.392 10.5438 11.6643 10.2715 12.0002 10.2715ZM12.0002 16.9615C12.3361 16.9615 12.6084 16.6892 12.6084 16.3533C12.6084 16.0174 12.3361 15.7451 12.0002 15.7451C11.6643 15.7451 11.392 16.0174 11.392 16.3533C11.392 16.6892 11.6643 16.9615 12.0002 16.9615Z" fill="white"/>
</g>
</svg>
