<svg width="56" height="57" viewBox="0 0 56 57" fill="none" xmlns="http://www.w3.org/2000/svg">
<rect y="0.115234" width="56" height="56" rx="8" fill="#2F4EED"/>
<path d="M20 19.1152H25C25.5523 19.1152 26 19.5629 26 20.1152V27.1152C26 27.6675 25.5523 28.1152 25 28.1152H20C19.4477 28.1152 19 27.6675 19 27.1152V20.1152C19 19.5629 19.4477 19.1152 20 19.1152Z" fill="white"/>
<path d="M30.9998 19.1152H35.9998C36.5521 19.1152 36.9998 19.5629 36.9998 20.1152V23.1152C36.9998 23.6675 36.5521 24.1152 35.9998 24.1152H30.9998C30.4475 24.1152 29.9998 23.6675 29.9998 23.1152V20.1152C29.9998 19.5629 30.4475 19.1152 30.9998 19.1152Z" fill="white"/>
<path d="M35.9998 28.1152H30.9998C30.4475 28.1152 29.9998 28.5629 29.9998 29.1152V36.1152C29.9998 36.6675 30.4475 37.1152 30.9998 37.1152H35.9998C36.5521 37.1152 36.9998 36.6675 36.9998 36.1152V29.1152C36.9998 28.5629 36.5521 28.1152 35.9998 28.1152Z" fill="white"/>
<path d="M20 32.1153H25C25.5523 32.1153 26 32.563 26 33.1153V36.1153C26 36.6676 25.5523 37.1153 25 37.1153H20C19.4477 37.1153 19 36.6676 19 36.1153V33.1153C19 32.563 19.4477 32.1153 20 32.1153Z" fill="white"/>
<path d="M20 19.1152H25C25.5523 19.1152 26 19.5629 26 20.1152V27.1152C26 27.6675 25.5523 28.1152 25 28.1152H20C19.4477 28.1152 19 27.6675 19 27.1152V20.1152C19 19.5629 19.4477 19.1152 20 19.1152Z" stroke="white" stroke-width="1.5" stroke-linecap="round" stroke-linejoin="round"/>
<path d="M30.9998 19.1152H35.9998C36.5521 19.1152 36.9998 19.5629 36.9998 20.1152V23.1152C36.9998 23.6675 36.5521 24.1152 35.9998 24.1152H30.9998C30.4475 24.1152 29.9998 23.6675 29.9998 23.1152V20.1152C29.9998 19.5629 30.4475 19.1152 30.9998 19.1152Z" stroke="white" stroke-width="1.5" stroke-linecap="round" stroke-linejoin="round"/>
<path d="M35.9998 28.1152H30.9998C30.4475 28.1152 29.9998 28.5629 29.9998 29.1152V36.1152C29.9998 36.6675 30.4475 37.1152 30.9998 37.1152H35.9998C36.5521 37.1152 36.9998 36.6675 36.9998 36.1152V29.1152C36.9998 28.5629 36.5521 28.1152 35.9998 28.1152Z" stroke="white" stroke-width="1.5" stroke-linecap="round" stroke-linejoin="round"/>
<path d="M20 32.1153H25C25.5523 32.1153 26 32.563 26 33.1153V36.1153C26 36.6676 25.5523 37.1153 25 37.1153H20C19.4477 37.1153 19 36.6676 19 36.1153V33.1153C19 32.563 19.4477 32.1153 20 32.1153Z" stroke="white" stroke-width="1.5" stroke-linecap="round" stroke-linejoin="round"/>
</svg>
