<svg width="350" height="24" viewBox="0 0 350 24" fill="none" xmlns="http://www.w3.org/2000/svg">
<path d="M110.828 10.9999H123V12.9999H110.828L116.192 18.3638L114.778 19.778L107 11.9999L114.778 4.22168L116.192 5.63589L110.828 10.9999Z" fill="#2F4EED"/>
<path d="M136.278 18V6.36364H140.54C141.366 6.36364 142.049 6.5 142.591 6.77273C143.133 7.04167 143.538 7.4072 143.807 7.86932C144.076 8.32765 144.21 8.8447 144.21 9.42045C144.21 9.9053 144.121 10.3144 143.943 10.6477C143.765 10.9773 143.527 11.2424 143.227 11.4432C142.932 11.6402 142.606 11.7841 142.25 11.875V11.9886C142.636 12.0076 143.013 12.1326 143.381 12.3636C143.752 12.5909 144.059 12.9148 144.301 13.3352C144.544 13.7557 144.665 14.267 144.665 14.8693C144.665 15.464 144.525 15.9981 144.244 16.4716C143.968 16.9413 143.54 17.3144 142.96 17.5909C142.381 17.8636 141.64 18 140.739 18H136.278ZM138.034 16.4943H140.568C141.409 16.4943 142.011 16.3314 142.375 16.0057C142.739 15.6799 142.92 15.2727 142.92 14.7841C142.92 14.4167 142.828 14.0795 142.642 13.7727C142.456 13.4659 142.191 13.2216 141.847 13.0398C141.506 12.858 141.1 12.767 140.631 12.767H138.034V16.4943ZM138.034 11.3977H140.386C140.78 11.3977 141.134 11.322 141.449 11.1705C141.767 11.0189 142.019 10.8068 142.205 10.5341C142.394 10.2576 142.489 9.93182 142.489 9.55682C142.489 9.07576 142.32 8.67235 141.983 8.34659C141.646 8.02083 141.129 7.85795 140.432 7.85795H138.034V11.3977ZM149.151 18.1932C148.598 18.1932 148.098 18.0909 147.651 17.8864C147.204 17.678 146.849 17.3769 146.588 16.983C146.33 16.589 146.202 16.1061 146.202 15.5341C146.202 15.0417 146.296 14.6364 146.486 14.3182C146.675 14 146.931 13.7481 147.253 13.5625C147.575 13.3769 147.935 13.2367 148.332 13.142C148.73 13.0473 149.135 12.9754 149.548 12.9261C150.071 12.8655 150.495 12.8163 150.821 12.7784C151.147 12.7367 151.384 12.6705 151.531 12.5795C151.679 12.4886 151.753 12.3409 151.753 12.1364V12.0966C151.753 11.6004 151.613 11.2159 151.332 10.9432C151.056 10.6705 150.643 10.5341 150.094 10.5341C149.522 10.5341 149.071 10.661 148.741 10.9148C148.416 11.1648 148.19 11.4432 148.065 11.75L146.469 11.3864C146.658 10.8561 146.935 10.428 147.298 10.1023C147.666 9.77273 148.088 9.53409 148.565 9.38636C149.043 9.23485 149.545 9.15909 150.071 9.15909C150.42 9.15909 150.789 9.20076 151.179 9.28409C151.573 9.36364 151.94 9.51136 152.281 9.72727C152.626 9.94318 152.908 10.2519 153.128 10.6534C153.348 11.0511 153.457 11.5682 153.457 12.2045V18H151.798V16.8068H151.73C151.62 17.0265 151.455 17.2424 151.236 17.4545C151.016 17.6667 150.734 17.8428 150.389 17.983C150.045 18.1231 149.632 18.1932 149.151 18.1932ZM149.52 16.8295C149.99 16.8295 150.391 16.7367 150.724 16.5511C151.062 16.3655 151.317 16.1231 151.491 15.8239C151.67 15.5208 151.759 15.197 151.759 14.8523V13.7273C151.698 13.7879 151.58 13.8447 151.406 13.8977C151.236 13.947 151.041 13.9905 150.821 14.0284C150.601 14.0625 150.387 14.0947 150.179 14.125C149.971 14.1515 149.796 14.1742 149.656 14.1932C149.327 14.2348 149.026 14.3049 148.753 14.4034C148.484 14.5019 148.268 14.6439 148.105 14.8295C147.946 15.0114 147.866 15.2538 147.866 15.5568C147.866 15.9773 148.022 16.2955 148.332 16.5114C148.643 16.7235 149.039 16.8295 149.52 16.8295ZM159.396 18.1761C158.552 18.1761 157.824 17.9848 157.214 17.6023C156.608 17.2159 156.143 16.6837 155.817 16.0057C155.491 15.3277 155.328 14.5511 155.328 13.6761C155.328 12.7898 155.495 12.0076 155.828 11.3295C156.161 10.6477 156.631 10.1155 157.237 9.73295C157.843 9.35038 158.557 9.15909 159.379 9.15909C160.042 9.15909 160.633 9.2822 161.152 9.52841C161.671 9.77083 162.089 10.1117 162.408 10.5511C162.73 10.9905 162.921 11.5038 162.982 12.0909H161.328C161.237 11.6818 161.029 11.3295 160.703 11.0341C160.381 10.7386 159.949 10.5909 159.408 10.5909C158.934 10.5909 158.519 10.7159 158.163 10.9659C157.811 11.2121 157.536 11.5644 157.339 12.0227C157.143 12.4773 157.044 13.0152 157.044 13.6364C157.044 14.2727 157.141 14.822 157.334 15.2841C157.527 15.7462 157.8 16.1042 158.152 16.358C158.508 16.6117 158.927 16.7386 159.408 16.7386C159.73 16.7386 160.021 16.6799 160.283 16.5625C160.548 16.4413 160.769 16.2689 160.947 16.0455C161.129 15.822 161.256 15.553 161.328 15.2386H162.982C162.921 15.803 162.737 16.3068 162.43 16.75C162.124 17.1932 161.713 17.5417 161.197 17.7955C160.686 18.0492 160.086 18.1761 159.396 18.1761ZM166.361 15.0398L166.349 12.9659H166.645L170.122 9.27273H172.156L168.19 13.4773H167.923L166.361 15.0398ZM164.798 18V6.36364H166.497V18H164.798ZM170.31 18L167.185 13.8523L168.355 12.6648L172.395 18H170.31ZM182.013 9.27273V10.6364H177.246V9.27273H182.013ZM178.524 7.18182H180.223V15.4375C180.223 15.767 180.272 16.0152 180.371 16.1818C180.469 16.3447 180.596 16.4564 180.751 16.517C180.911 16.5739 181.083 16.6023 181.268 16.6023C181.405 16.6023 181.524 16.5928 181.626 16.5739C181.729 16.5549 181.808 16.5398 181.865 16.5284L182.172 17.9318C182.073 17.9697 181.933 18.0076 181.751 18.0455C181.57 18.0871 181.342 18.1098 181.07 18.1136C180.623 18.1212 180.206 18.0417 179.82 17.875C179.433 17.7083 179.121 17.4508 178.882 17.1023C178.643 16.7538 178.524 16.3163 178.524 15.7898V7.18182ZM187.474 18.1761C186.656 18.1761 185.942 17.9886 185.332 17.6136C184.723 17.2386 184.249 16.714 183.912 16.0398C183.575 15.3655 183.406 14.5777 183.406 13.6761C183.406 12.7708 183.575 11.9792 183.912 11.3011C184.249 10.6231 184.723 10.0966 185.332 9.72159C185.942 9.34659 186.656 9.15909 187.474 9.15909C188.293 9.15909 189.007 9.34659 189.616 9.72159C190.226 10.0966 190.7 10.6231 191.037 11.3011C191.374 11.9792 191.543 12.7708 191.543 13.6761C191.543 14.5777 191.374 15.3655 191.037 16.0398C190.7 16.714 190.226 17.2386 189.616 17.6136C189.007 17.9886 188.293 18.1761 187.474 18.1761ZM187.48 16.75C188.01 16.75 188.45 16.6098 188.798 16.3295C189.147 16.0492 189.404 15.6761 189.571 15.2102C189.741 14.7443 189.827 14.2311 189.827 13.6705C189.827 13.1136 189.741 12.6023 189.571 12.1364C189.404 11.6667 189.147 11.2898 188.798 11.0057C188.45 10.7216 188.01 10.5795 187.48 10.5795C186.946 10.5795 186.503 10.7216 186.151 11.0057C185.802 11.2898 185.543 11.6667 185.372 12.1364C185.205 12.6023 185.122 13.1136 185.122 13.6705C185.122 14.2311 185.205 14.7443 185.372 15.2102C185.543 15.6761 185.802 16.0492 186.151 16.3295C186.503 16.6098 186.946 16.75 187.48 16.75ZM197.81 18V6.36364H199.565V16.4886H204.838V18H197.81ZM210.381 18.1761C209.563 18.1761 208.848 17.9886 208.239 17.6136C207.629 17.2386 207.155 16.714 206.818 16.0398C206.481 15.3655 206.312 14.5777 206.312 13.6761C206.312 12.7708 206.481 11.9792 206.818 11.3011C207.155 10.6231 207.629 10.0966 208.239 9.72159C208.848 9.34659 209.563 9.15909 210.381 9.15909C211.199 9.15909 211.913 9.34659 212.523 9.72159C213.133 10.0966 213.606 10.6231 213.943 11.3011C214.28 11.9792 214.449 12.7708 214.449 13.6761C214.449 14.5777 214.28 15.3655 213.943 16.0398C213.606 16.714 213.133 17.2386 212.523 17.6136C211.913 17.9886 211.199 18.1761 210.381 18.1761ZM210.386 16.75C210.917 16.75 211.356 16.6098 211.705 16.3295C212.053 16.0492 212.311 15.6761 212.477 15.2102C212.648 14.7443 212.733 14.2311 212.733 13.6705C212.733 13.1136 212.648 12.6023 212.477 12.1364C212.311 11.6667 212.053 11.2898 211.705 11.0057C211.356 10.7216 210.917 10.5795 210.386 10.5795C209.852 10.5795 209.409 10.7216 209.057 11.0057C208.708 11.2898 208.449 11.6667 208.278 12.1364C208.112 12.6023 208.028 13.1136 208.028 13.6705C208.028 14.2311 208.112 14.7443 208.278 15.2102C208.449 15.6761 208.708 16.0492 209.057 16.3295C209.409 16.6098 209.852 16.75 210.386 16.75ZM220.004 21.4545C219.311 21.4545 218.714 21.3636 218.214 21.1818C217.718 21 217.313 20.7595 216.999 20.4602C216.684 20.161 216.449 19.8333 216.294 19.4773L217.754 18.875C217.857 19.0417 217.993 19.2178 218.163 19.4034C218.338 19.5928 218.572 19.7538 218.868 19.8864C219.167 20.0189 219.552 20.0852 220.021 20.0852C220.665 20.0852 221.197 19.928 221.618 19.6136C222.038 19.303 222.249 18.8068 222.249 18.125V16.4091H222.141C222.038 16.5947 221.891 16.8011 221.697 17.0284C221.508 17.2557 221.247 17.4527 220.913 17.6193C220.58 17.786 220.146 17.8693 219.612 17.8693C218.923 17.8693 218.302 17.7083 217.749 17.3864C217.199 17.0606 216.764 16.5814 216.442 15.9489C216.124 15.3125 215.964 14.5303 215.964 13.6023C215.964 12.6742 216.122 11.8788 216.436 11.2159C216.754 10.553 217.19 10.0455 217.743 9.69318C218.296 9.33712 218.923 9.15909 219.624 9.15909C220.165 9.15909 220.603 9.25 220.936 9.43182C221.269 9.60985 221.529 9.81818 221.714 10.0568C221.904 10.2955 222.05 10.5057 222.152 10.6875H222.277V9.27273H223.942V18.1932C223.942 18.9432 223.768 19.5587 223.419 20.0398C223.071 20.5208 222.599 20.8769 222.004 21.108C221.413 21.339 220.747 21.4545 220.004 21.4545ZM219.987 16.4602C220.476 16.4602 220.889 16.3466 221.226 16.1193C221.567 15.8883 221.824 15.5587 221.999 15.1307C222.177 14.6989 222.266 14.1818 222.266 13.5795C222.266 12.9924 222.179 12.4754 222.004 12.0284C221.83 11.5814 221.574 11.233 221.237 10.983C220.9 10.7292 220.483 10.6023 219.987 10.6023C219.476 10.6023 219.05 10.7348 218.709 11C218.368 11.2614 218.11 11.6174 217.936 12.0682C217.766 12.5189 217.68 13.0227 217.68 13.5795C217.68 14.1515 217.768 14.6534 217.942 15.0852C218.116 15.517 218.374 15.8542 218.714 16.0966C219.059 16.339 219.483 16.4602 219.987 16.4602ZM226.22 18V9.27273H227.919V18H226.22ZM227.078 7.92614C226.783 7.92614 226.529 7.82765 226.317 7.63068C226.108 7.42992 226.004 7.19129 226.004 6.91477C226.004 6.63447 226.108 6.39583 226.317 6.19886C226.529 5.99811 226.783 5.89773 227.078 5.89773C227.374 5.89773 227.625 5.99811 227.834 6.19886C228.046 6.39583 228.152 6.63447 228.152 6.91477C228.152 7.19129 228.046 7.42992 227.834 7.63068C227.625 7.82765 227.374 7.92614 227.078 7.92614ZM231.903 12.8182V18H230.205V9.27273H231.835V10.6932H231.943C232.144 10.2311 232.458 9.85985 232.886 9.57955C233.318 9.29924 233.862 9.15909 234.517 9.15909C235.112 9.15909 235.633 9.28409 236.08 9.53409C236.527 9.7803 236.873 10.1477 237.119 10.6364C237.366 11.125 237.489 11.7292 237.489 12.4489V18H235.79V12.6534C235.79 12.0208 235.625 11.5265 235.295 11.1705C234.966 10.8106 234.513 10.6307 233.938 10.6307C233.544 10.6307 233.193 10.7159 232.886 10.8864C232.583 11.0568 232.343 11.3068 232.165 11.6364C231.991 11.9621 231.903 12.3561 231.903 12.8182Z" fill="#2F4EED"/>
</svg>
