<svg width="100" height="100" viewBox="0 0 100 100" fill="none" xmlns="http://www.w3.org/2000/svg">
<g id="icons8_ok 1" clip-path="url(#clip0_241_1993)">
<path id="Vector" d="M91.6668 50C91.6668 73.0104 73.0106 91.6667 50.0002 91.6667C26.9897 91.6667 8.3335 73.0104 8.3335 50C8.3335 26.9896 26.9897 8.33331 50.0002 8.33331C73.0106 8.33331 91.6668 26.9896 91.6668 50Z" fill="#3DDAB4"/>
<path id="Vector_2" d="M91.5324 9.10988L39.9131 62.6754L48.3874 70.8417L100.007 17.2763L91.5324 9.10988Z" fill="#6C19FF"/>
<path id="Vector_3" d="M79.9918 21.0771L39.9126 62.6792L48.3855 70.8438L86.9793 30.7854C85.1209 27.2167 82.7605 23.9479 79.9918 21.0771Z" fill="#2100C4"/>
<path id="Vector_4" d="M31.1958 38.0579L23.0483 46.5504L48.3906 70.8629L56.538 62.3704L31.1958 38.0579Z" fill="#2100C4"/>
</g>
<defs>
<clipPath id="clip0_241_1993">
<rect width="100" height="100" fill="white"/>
</clipPath>
</defs>
</svg>
