<svg width="160" height="35" viewBox="0 0 160 35" fill="none" xmlns="http://www.w3.org/2000/svg">
<g id="Frame" clip-path="url(#clip0_21_1268)">
<g id="Mask group">
<mask id="mask0_21_1268" style="mask-type:luminance" maskUnits="userSpaceOnUse" x="0" y="0" width="35" height="35">
<g id="Group">
<path id="Vector" d="M34.6154 0H0V34.6154H34.6154V0Z" fill="white"/>
</g>
</mask>
<g mask="url(#mask0_21_1268)">
<g id="Group_2">
<path id="Vector_2" d="M30.6593 0H3.95604C1.77118 0 0 1.77118 0 3.95604V30.6593C0 32.8441 1.77118 34.6154 3.95604 34.6154H30.6593C32.8441 34.6154 34.6154 32.8441 34.6154 30.6593V3.95604C34.6154 1.77118 32.8441 0 30.6593 0Z" fill="#2F4EED"/>
<path id="Vector_3" d="M14.3406 6.55219C14.3406 6.34734 14.5067 6.1813 14.7115 6.1813H16.6895C16.8943 6.1813 17.0604 6.34734 17.0604 6.55219V8.66311C17.6829 8.57196 18.3408 8.52634 19.034 8.52634C19.1175 8.52634 19.2014 8.52715 19.2857 8.52865V6.55219C19.2857 6.34734 19.4517 6.1813 19.6565 6.1813H21.6346C21.8394 6.1813 22.0055 6.34734 22.0055 6.55219V8.81923C22.9187 8.983 23.8116 9.23577 24.6841 9.57765C24.8775 9.65342 24.9651 9.87588 24.8808 10.0656L23.5787 12.9939C23.4968 13.1778 23.2834 13.2626 23.0961 13.1889C22.4989 12.954 21.8954 12.752 21.2858 12.5828C20.5617 12.382 19.7934 12.2815 18.981 12.2815C18.3629 12.2815 17.811 12.3974 17.3253 12.6292C16.8397 12.8533 16.4246 13.1817 16.0802 13.6143C15.7358 14.047 15.4709 14.5763 15.2855 15.2022C15.1089 15.8203 15.0205 16.5234 15.0205 17.3115C15.0205 18.3778 15.1751 19.2741 15.4842 20.0004C15.7932 20.7267 16.2613 21.2753 16.8882 21.6462C17.524 22.0171 18.3187 22.2025 19.2724 22.2025C20.1378 22.2025 20.9678 22.0982 21.7626 21.8896C22.4016 21.7237 23.0434 21.5309 23.688 21.3113C23.9313 21.2284 24.1866 21.4076 24.1866 21.6647V24.7535C24.1866 24.9065 24.0927 25.0442 23.949 25.0969C23.3132 25.3298 22.6653 25.5118 22.0055 25.6436V27.816C22.0055 28.0208 21.8394 28.1868 21.6346 28.1868H19.6565C19.4517 28.1868 19.2857 28.0208 19.2857 27.816V25.9378C19.0936 25.9432 18.8993 25.9462 18.7029 25.9462C18.1268 25.9462 17.5793 25.9188 17.0604 25.8644V27.816C17.0604 28.0208 16.8943 28.1868 16.6895 28.1868H14.7115C14.5067 28.1868 14.3406 28.0208 14.3406 27.816V25.2302C14.0592 25.1187 13.7913 24.9943 13.537 24.8565C12.2037 24.1226 11.2191 23.1065 10.5833 21.8084C9.95631 20.5103 9.64281 19.0037 9.64281 17.2884C9.64281 16.0057 9.84592 14.8313 10.2521 13.765C10.6672 12.6987 11.272 11.7754 12.0668 10.995C12.7051 10.362 13.463 9.84615 14.3406 9.44742V6.55219Z" fill="white"/>
</g>
</g>
</g>
<g id="Clip path group">
<mask id="mask1_21_1268" style="mask-type:luminance" maskUnits="userSpaceOnUse" x="40" y="7" width="120" height="21">
<g id="clip0_18_242">
<path id="Vector_4" d="M160 7.3718H40.7692V27.2436H160V7.3718Z" fill="white"/>
</g>
</mask>
<g mask="url(#mask1_21_1268)">
<g id="Group_3">
<path id="Vector_5" d="M47.5292 27.0685C46.1581 27.0685 44.9896 26.8208 44.0235 26.3253C43.0573 25.8216 42.3223 25.0453 41.8188 23.9966C41.315 22.9478 41.0631 21.6059 41.0631 19.9708C41.0631 18.278 41.3481 16.8989 41.9177 15.8337C42.4958 14.7601 43.2927 13.9715 44.3085 13.4678C45.3323 12.964 46.5173 12.7122 47.8635 12.7122C48.8215 12.7122 49.6473 12.8072 50.3408 12.9971C51.0427 13.1788 51.6538 13.3976 52.1742 13.6536L51.0592 16.5769C50.4646 16.3374 49.9115 16.1433 49.3996 15.9947C48.8877 15.8378 48.3754 15.7593 47.8635 15.7593C47.2027 15.7593 46.6538 15.9162 46.2162 16.23C45.7785 16.5356 45.4523 16.998 45.2377 17.6173C45.0227 18.2367 44.9154 19.0129 44.9154 19.9461C44.9154 20.8627 45.0312 21.6225 45.2623 22.2253C45.4935 22.8281 45.8281 23.2782 46.2658 23.5754C46.7035 23.8645 47.2358 24.009 47.8635 24.009C48.6481 24.009 49.3458 23.9058 49.9569 23.6993C50.5681 23.4846 51.1627 23.1873 51.7408 22.8074V26.0404C51.1627 26.4038 50.5558 26.6639 49.9196 26.8208C49.2923 26.9859 48.4954 27.0685 47.5292 27.0685ZM67.0388 19.8718C67.0388 21.0278 66.8819 22.0518 66.5681 22.9437C66.2627 23.8356 65.8127 24.5912 65.2181 25.2105C64.6315 25.8216 63.9215 26.284 63.0873 26.5978C62.2615 26.9116 61.3285 27.0685 60.2881 27.0685C59.3135 27.0685 58.4177 26.9116 57.6 26.5978C56.7908 26.284 56.0846 25.8216 55.4819 25.2105C54.8873 24.5912 54.425 23.8356 54.0946 22.9437C53.7727 22.0518 53.6115 21.0278 53.6115 19.8718C53.6115 18.3358 53.8838 17.0352 54.4288 15.9699C54.9742 14.9047 55.7504 14.0953 56.7577 13.5421C57.7654 12.9888 58.9669 12.7122 60.3623 12.7122C61.6588 12.7122 62.8065 12.9888 63.8058 13.5421C64.8135 14.0953 65.6019 14.9047 66.1719 15.9699C66.7496 17.0352 67.0388 18.3358 67.0388 19.8718ZM57.4638 19.8718C57.4638 20.7802 57.5631 21.544 57.7612 22.1633C57.9592 22.7827 58.2688 23.2492 58.69 23.563C59.1112 23.8768 59.6604 24.0337 60.3377 24.0337C61.0065 24.0337 61.5473 23.8768 61.9604 23.563C62.3815 23.2492 62.6869 22.7827 62.8769 22.1633C63.075 21.544 63.1742 20.7802 63.1742 19.8718C63.1742 18.9552 63.075 18.1954 62.8769 17.5926C62.6869 16.9815 62.3815 16.5232 61.9604 16.2177C61.5392 15.9121 60.99 15.7593 60.3127 15.7593C59.3135 15.7593 58.5869 16.102 58.1327 16.7874C57.6869 17.4728 57.4638 18.501 57.4638 19.8718ZM73.4308 12.9723V26.8208H69.6531V12.9723H73.4308ZM71.5481 7.54684C72.1096 7.54684 72.5927 7.679 72.9973 7.94323C73.4019 8.19923 73.6042 8.68231 73.6042 9.3925C73.6042 10.0944 73.4019 10.5816 72.9973 10.8542C72.5927 11.1184 72.1096 11.2505 71.5481 11.2505C70.9785 11.2505 70.4912 11.1184 70.0865 10.8542C69.69 10.5816 69.4919 10.0944 69.4919 9.3925C69.4919 8.68231 69.69 8.19923 70.0865 7.94323C70.4912 7.679 70.9785 7.54684 71.5481 7.54684ZM84.7654 12.7122C86.2435 12.7122 87.4327 13.1168 88.3331 13.9261C89.2331 14.7271 89.6831 16.0153 89.6831 17.7908V26.8208H85.9054V18.7322C85.9054 17.7412 85.7235 16.9939 85.3596 16.4902C85.005 15.9864 84.4431 15.7346 83.6754 15.7346C82.5192 15.7346 81.7308 16.1268 81.3096 16.9113C80.8885 17.6958 80.6777 18.8272 80.6777 20.3053V26.8208H76.8996V12.9723H79.7858L80.2938 14.7436H80.5042C80.8015 14.2647 81.1692 13.8765 81.6069 13.5792C82.0527 13.282 82.5438 13.0631 83.0808 12.9227C83.6258 12.7824 84.1873 12.7122 84.7654 12.7122ZM105.65 19.8718C105.65 21.0278 105.493 22.0518 105.18 22.9437C104.874 23.8356 104.424 24.5912 103.829 25.2105C103.243 25.8216 102.533 26.284 101.698 26.5978C100.873 26.9116 99.9396 27.0685 98.8992 27.0685C97.9246 27.0685 97.0288 26.9116 96.2115 26.5978C95.4023 26.284 94.6962 25.8216 94.0931 25.2105C93.4988 24.5912 93.0362 23.8356 92.7062 22.9437C92.3838 22.0518 92.2227 21.0278 92.2227 19.8718C92.2227 18.3358 92.4954 17.0352 93.0404 15.9699C93.5854 14.9047 94.3615 14.0953 95.3689 13.5421C96.3765 12.9888 97.5781 12.7122 98.9735 12.7122C100.27 12.7122 101.418 12.9888 102.417 13.5421C103.425 14.0953 104.213 14.9047 104.783 15.9699C105.361 17.0352 105.65 18.3358 105.65 19.8718ZM96.075 19.8718C96.075 20.7802 96.1742 21.544 96.3727 22.1633C96.5704 22.7827 96.8804 23.2492 97.3015 23.563C97.7227 23.8768 98.2719 24.0337 98.9488 24.0337C99.6177 24.0337 100.159 23.8768 100.572 23.563C100.993 23.2492 101.298 22.7827 101.488 22.1633C101.687 21.544 101.785 20.7802 101.785 19.8718C101.785 18.9552 101.687 18.1954 101.488 17.5926C101.298 16.9815 100.993 16.5232 100.572 16.2177C100.15 15.9121 99.6012 15.7593 98.9242 15.7593C97.9246 15.7593 97.1985 16.102 96.7438 16.7874C96.2981 17.4728 96.075 18.501 96.075 19.8718ZM124.528 12.7122C126.097 12.7122 127.282 13.1168 128.083 13.9261C128.893 14.7271 129.297 16.0153 129.297 17.7908V26.8208H125.507V18.7322C125.507 17.7412 125.338 16.9939 124.999 16.4902C124.66 15.9864 124.136 15.7346 123.426 15.7346C122.427 15.7346 121.716 16.0938 121.295 16.8122C120.874 17.5224 120.663 18.5422 120.663 19.8718V26.8208H116.885V18.7322C116.885 18.0715 116.811 17.5182 116.663 17.0723C116.514 16.6264 116.287 16.292 115.982 16.069C115.676 15.846 115.283 15.7346 114.804 15.7346C114.102 15.7346 113.549 15.9121 113.145 16.2672C112.748 16.614 112.463 17.1302 112.29 17.8156C112.125 18.4927 112.042 19.3226 112.042 20.3053V26.8208H108.264V12.9723H111.15L111.658 14.7436H111.869C112.15 14.2647 112.5 13.8765 112.922 13.5792C113.351 13.282 113.822 13.0631 114.334 12.9227C114.846 12.7824 115.366 12.7122 115.895 12.7122C116.91 12.7122 117.769 12.8773 118.471 13.2076C119.181 13.538 119.726 14.0499 120.106 14.7436H120.441C120.853 14.0335 121.435 13.5173 122.187 13.1952C122.947 12.8732 123.727 12.7122 124.528 12.7122ZM138.352 12.6874C140.211 12.6874 141.635 13.092 142.626 13.9013C143.617 14.7106 144.112 15.941 144.112 17.5926V26.8208H141.474L140.743 24.938H140.644C140.247 25.4335 139.843 25.8381 139.43 26.1519C139.017 26.4657 138.542 26.6969 138.006 26.8456C137.469 26.9942 136.816 27.0685 136.048 27.0685C135.231 27.0685 134.496 26.9116 133.843 26.5978C133.2 26.284 132.692 25.8051 132.32 25.1609C131.948 24.5085 131.763 23.6828 131.763 22.6836C131.763 21.2137 132.279 20.1319 133.311 19.4382C134.343 18.7363 135.892 18.3482 137.956 18.2739L140.359 18.1995V17.5926C140.359 16.8659 140.169 16.3333 139.789 15.9947C139.409 15.6561 138.881 15.4868 138.203 15.4868C137.535 15.4868 136.878 15.5818 136.234 15.7717C135.59 15.9617 134.946 16.2011 134.302 16.4902L133.051 13.9385C133.786 13.5503 134.608 13.2448 135.516 13.0218C136.432 12.7988 137.378 12.6874 138.352 12.6874ZM140.359 20.4044L138.897 20.4539C137.675 20.487 136.825 20.7058 136.346 21.1104C135.875 21.5151 135.64 22.0477 135.64 22.7083C135.64 23.2864 135.809 23.6993 136.147 23.947C136.486 24.1865 136.928 24.3062 137.473 24.3062C138.282 24.3062 138.963 24.0668 139.517 23.5878C140.078 23.1088 140.359 22.4276 140.359 21.544V20.4044ZM151.892 27.0685C150.347 27.0685 149.088 26.4657 148.113 25.26C147.148 24.0461 146.664 22.2665 146.664 19.9213C146.664 17.5513 147.155 15.7593 148.138 14.5454C149.121 13.3233 150.405 12.7122 151.991 12.7122C152.652 12.7122 153.233 12.803 153.737 12.9847C154.241 13.1663 154.675 13.4099 155.038 13.7155C155.41 14.0211 155.723 14.3637 155.98 14.7436H156.103C156.053 14.4793 155.992 14.0912 155.917 13.5792C155.852 13.059 155.818 12.5263 155.818 11.9813V7.54684H159.609V26.8208H156.71L155.98 25.0247H155.818C155.579 25.4045 155.277 25.7514 154.914 26.0652C154.559 26.3707 154.133 26.6143 153.638 26.796C153.143 26.9777 152.561 27.0685 151.892 27.0685ZM153.217 24.0585C154.249 24.0585 154.976 23.753 155.397 23.1419C155.827 22.5225 156.053 21.5935 156.078 20.3548V19.9461C156.078 18.6 155.872 17.5719 155.459 16.8618C155.047 16.1433 154.278 15.7841 153.155 15.7841C152.321 15.7841 151.668 16.1433 151.198 16.8618C150.727 17.5802 150.492 18.6166 150.492 19.9708C150.492 21.3252 150.727 22.345 151.198 23.0304C151.677 23.7158 152.35 24.0585 153.217 24.0585Z" fill="black"/>
</g>
</g>
</g>
</g>
<defs>
<clipPath id="clip0_21_1268">
<rect width="160" height="34.6154" fill="white"/>
</clipPath>
</defs>
</svg>
