<svg width="40" height="41" viewBox="0 0 40 41" fill="none" xmlns="http://www.w3.org/2000/svg">
<g id="Media / Social icon">
<path id="bg" d="M0 20.6152C0 31.6609 8.95431 40.6152 20 40.6152C31.0457 40.6152 40 31.6609 40 20.6152C40 9.56954 31.0457 0.615234 20 0.615234C8.95431 0.615234 0 9.56954 0 20.6152Z" fill="white"/>
<path id="linkedin" d="M14.5 30.6152H10.25V17.2402H14.5V30.6152ZM12.375 15.3652C11 15.3652 10 14.3652 10 12.9902C10 11.6152 11.125 10.6152 12.375 10.6152C13.75 10.6152 14.75 11.6152 14.75 12.9902C14.75 14.3652 13.75 15.3652 12.375 15.3652ZM30 30.6152H25.75V23.3652C25.75 21.2402 24.875 20.6152 23.625 20.6152C22.375 20.6152 21.125 21.6152 21.125 23.4902V30.6152H16.875V17.2402H20.875V19.1152C21.25 18.2402 22.75 16.8652 24.875 16.8652C27.25 16.8652 29.75 18.2402 29.75 22.3652V30.6152H30Z" fill="#101010"/>
</g>
</svg>
